<svg width="70" height="70" viewBox="0 0 70 70" fill="none" xmlns="http://www.w3.org/2000/svg">
<path d="M5.83334 8.75H23.3333C26.4275 8.75 29.395 9.97916 31.5829 12.1671C33.7708 14.355 35 17.3225 35 20.4167V61.25C35 58.9294 34.0781 56.7038 32.4372 55.0628C30.7962 53.4219 28.5706 52.5 26.25 52.5H5.83334V8.75Z" stroke="#086DCC" stroke-width="5" stroke-linecap="round" stroke-linejoin="round"/>
<path d="M64.1667 8.75H46.6667C43.5725 8.75 40.605 9.97916 38.4171 12.1671C36.2292 14.355 35 17.3225 35 20.4167V61.25C35 58.9294 35.9219 56.7038 37.5628 55.0628C39.2038 53.4219 41.4294 52.5 43.75 52.5H64.1667V8.75Z" stroke="#086DCC" stroke-width="5" stroke-linecap="round" stroke-linejoin="round"/>
</svg>
