<svg width="70" height="70" viewBox="0 0 70 70" fill="none" xmlns="http://www.w3.org/2000/svg">
<g clip-path="url(#clip0)">
<path d="M49.5833 61.25V55.4167C49.5833 52.3225 48.3542 49.355 46.1662 47.1671C43.9783 44.9792 41.0108 43.75 37.9167 43.75H14.5833C11.4891 43.75 8.52167 44.9792 6.33374 47.1671C4.14582 49.355 2.91666 52.3225 2.91666 55.4167V61.25" stroke="#086DCC" stroke-width="6" stroke-linecap="round" stroke-linejoin="round"/>
<path d="M26.25 32.0833C32.6933 32.0833 37.9167 26.86 37.9167 20.4167C37.9167 13.9733 32.6933 8.75 26.25 8.75C19.8067 8.75 14.5833 13.9733 14.5833 20.4167C14.5833 26.86 19.8067 32.0833 26.25 32.0833Z" stroke="#086DCC" stroke-width="6" stroke-linecap="round" stroke-linejoin="round"/>
<path d="M67.0833 61.25V55.4166C67.0814 52.8317 66.221 50.3206 64.6373 48.2776C63.0536 46.2346 60.8362 44.7754 58.3333 44.1292" stroke="#086DCC" stroke-width="6" stroke-linecap="round" stroke-linejoin="round"/>
<path d="M46.6667 9.12915C49.1762 9.7717 51.4005 11.2312 52.9889 13.2776C54.5774 15.3239 55.4395 17.8407 55.4395 20.4312C55.4395 23.0217 54.5774 25.5386 52.9889 27.5849C51.4005 29.6313 49.1762 31.0908 46.6667 31.7333" stroke="#086DCC" stroke-width="6" stroke-linecap="round" stroke-linejoin="round"/>
</g>
<defs>
<clipPath id="clip0">
<rect width="70" height="70" fill="white"/>
</clipPath>
</defs>
</svg>
